<?xml version="1.0" encoding="utf-8"?>
<!-- Generator: Adobe Illustrator 20.0.0, SVG Export Plug-In . SVG Version: 6.00 Build 0)  -->
<svg version="1.1" id="图层_1" xmlns="http://www.w3.org/2000/svg" xmlns:xlink="http://www.w3.org/1999/xlink" x="0px" y="0px"
	 viewBox="0 0 595.3 841.9" style="enable-background:new 0 0 595.3 841.9;" xml:space="preserve">
<style type="text/css">
	.st0{fill:#FFFFFF;stroke:#000000;stroke-width:6;stroke-miterlimit:10;}
	.st1{fill:#9CBAEF;stroke:#000000;stroke-width:6;stroke-linejoin:round;stroke-miterlimit:10;}
	.st2{fill:#FFFFFF;stroke:#000000;stroke-width:6;stroke-linecap:round;stroke-miterlimit:10;}
	.st3{fill:none;stroke:#000000;stroke-width:6;stroke-linecap:round;stroke-miterlimit:10;}
	.st4{fill:#FF9178;}
	.st5{fill:#AEB4FF;}
	.st6{fill:#8EDDBB;}
	.st7{fill:#64997F;}
	.st8{fill:#87C4A4;}
	.st9{fill:#EADB92;}
	.st10{fill:none;stroke:#000000;stroke-width:5;stroke-linecap:round;stroke-miterlimit:10;}
	.st11{fill:#F2C27C;}
	.st12{fill:#E29F71;}
	.st13{fill:#EF8F6F;}
	.st14{fill:none;stroke:#000000;stroke-width:4;stroke-miterlimit:10;}
	.st15{fill:#FFC8BD;stroke:#000000;stroke-width:4;stroke-miterlimit:10;}
	.st16{fill:none;stroke:#000000;stroke-width:5;stroke-miterlimit:10;}
	.st17{fill:#8BA7C1;}
	.st18{fill:#F78BE3;}
	.st19{fill:#DB7DCE;}
	.st20{fill:#E9F6FF;stroke:#000000;stroke-width:5;stroke-miterlimit:10;}
	.st21{fill:#7992A5;}
</style>
<g>
	<g>
		<g>
			<path class="st0" d="M214.1,175v113.8c0,10.6,8.6,19.2,19.2,19.2h126.6c10.6,0,19.2-8.6,19.2-19.2V159.2
				c0-10.6-8.6-19.2-19.2-19.2h-111l0,0c-1.9,0-3.8,0.8-5.1,2.1l-27.5,27.8C214.8,171.2,214.1,173.1,214.1,175z"/>
			<path class="st1" d="M249.9,141v29c0,2.2-1.8,4-4,4h-30"/>
		</g>
		<g>
			<g>
				<path class="st2" d="M349.9,191.3c-1.4,6.3-7,9.4-15.7,9.4s-13.9-3.1-15.7-9.4"/>
				<path class="st2" d="M241.1,191.3c1.4,6.3,7,9.4,15.7,9.4c8.6,0,13.9-3.1,15.7-9.4"/>
			</g>
			<path class="st2" d="M325.5,218.7c-3.5,6.6-13,14.3-29,14.3s-25.5-7.7-29-14.3"/>
		</g>
	</g>
	<g>
		<path class="st3" d="M212.6,226c0,0-5,52-38,52"/>
		<path class="st3" d="M380.5,226c0,0,5,52,38,52"/>
	</g>
	<g>
		<path class="st2" d="M322.8,308.3c0,0,28.3-2.4,33.8,13.4c5.5,15.7-20.5,16.6-38.6,15.3c-14-1-21.1-6.6-19.5-11.4
			c1.5-4.6,12.6-8.6,25.1-3.1"/>
	</g>
	<g>
		<path class="st2" d="M271.2,308.3c0,0-28.3-2.4-33.8,13.4c-5.5,15.7,20.5,16.6,38.6,15.3c14-1,21.1-6.6,19.5-11.4
			c-1.5-4.6-12.6-8.6-25.1-3.1"/>
	</g>
</g>
<g>
	<path class="st4" d="M142,110c5,0,9,4,9,9s-4,9-9,9s-9-4-9-9S137,110,142,110 M142,104c-8.3,0-15,6.7-15,15s6.7,15,15,15
		s15-6.7,15-15S150.3,104,142,104L142,104z"/>
</g>
<rect x="205.7" y="41.7" transform="matrix(0.4323 -0.9017 0.9017 0.4323 75.471 225.3056)" class="st5" width="22" height="22"/>
<g>
	<path class="st6" d="M198.5,127.7l16.7,1.4c2.7,0.2,4.8-2.2,4.3-4.8l-3.6-16.9c-0.5-2.4-3.6-3.2-5.2-1.3l-14.1,17.1
		C195.2,124.9,196.3,127.5,198.5,127.7z"/>
</g>
<g>
	<g>
		<path class="st7" d="M261,683c-2.2,0-4-1.8-4-4v-6c0-2.2,1.8-4,4-4h16c2.2,0,4,1.8,4,4v6c0,2.2-1.8,4-4,4H261z"/>
		<g>
			<path d="M277,671c1.1,0,2,0.9,2,2v6c0,1.1-0.9,2-2,2h-16c-1.1,0-2-0.9-2-2v-6c0-1.1,0.9-2,2-2H277 M277,667h-16c-3.3,0-6,2.7-6,6
				v6c0,3.3,2.7,6,6,6h16c3.3,0,6-2.7,6-6v-6C283,669.7,280.3,667,277,667L277,667z"/>
		</g>
	</g>
	<g>
		<path class="st8" d="M236,669.5c-5.8,0-10.5-4.7-10.5-10.5v-78c0-5.8,4.7-10.5,10.5-10.5h66c5.8,0,10.5,4.7,10.5,10.5v78
			c0,5.8-4.7,10.5-10.5,10.5H236z"/>
		<path d="M302,573c4.4,0,8,3.6,8,8v78c0,4.4-3.6,8-8,8h-66c-4.4,0-8-3.6-8-8v-78c0-4.4,3.6-8,8-8H302 M302,568h-66
			c-7.2,0-13,5.8-13,13v78c0,7.2,5.8,13,13,13h66c7.2,0,13-5.8,13-13v-78C315,573.8,309.2,568,302,568L302,568z"/>
	</g>
	<g>
		<path class="st8" d="M211.6,703.5c-3.6,0-6.5-2.9-6.5-6.5v-8c0-3.6,2.9-6.5,6.5-6.5H325c3.6,0,6.5,2.9,6.5,6.5v8
			c0,3.6-2.9,6.5-6.5,6.5H211.6z"/>
		<path d="M325,685c2.2,0,4,1.8,4,4v8c0,2.2-1.8,4-4,4H211.6c-2.2,0-4-1.8-4-4v-8c0-2.2,1.8-4,4-4H325 M325,680H211.6c-5,0-9,4-9,9
			v8c0,5,4,9,9,9H325c5,0,9-4,9-9v-8C334,684,330,680,325,680L325,680z"/>
	</g>
	<g>
		<path class="st7" d="M323.9,685h-46.7c-0.1,0.5-0.2,1-0.2,1.5v13.1c0,0.5,0.1,1,0.2,1.5h46.7c2.8,0,5.1-1.3,5.1-2.9V688
			C329,686.3,326.7,685,323.9,685z"/>
	</g>
	<g>
		<g>
			<path class="st8" d="M225,773.5c-1.9,0-3.5-1.6-3.5-3.5v-59c0-1.9,1.6-3.5,3.5-3.5h8c1.9,0,3.5,1.6,3.5,3.5v59
				c0,1.9-1.6,3.5-3.5,3.5H225z"/>
			<path d="M233,710c0.6,0,1,0.5,1,1v59c0,0.5-0.4,1-1,1h-8c-0.6,0-1-0.5-1-1v-59c0-0.5,0.4-1,1-1H233 M233,705h-8c-3.3,0-6,2.7-6,6
				v59c0,3.3,2.7,6,6,6h8c3.3,0,6-2.7,6-6v-59C239,707.7,236.3,705,233,705L233,705z"/>
		</g>
		<g>
			<path class="st8" d="M221,710c-1.7,0-3-1.3-3-3v-0.5c0-1.7,1.3-3,3-3h16c1.7,0,3,1.3,3,3v0.5c0,1.7-1.3,3-3,3H221z"/>
			<path d="M237,705.5c0.6,0,1,0.5,1,1v0.5c0,0.5-0.4,1-1,1h-16c-0.6,0-1-0.5-1-1v-0.5c0-0.5,0.4-1,1-1H237 M237,701.5h-16
				c-2.8,0-5,2.2-5,5v0.5c0,2.8,2.2,5,5,5h16c2.8,0,5-2.2,5-5v-0.5C242,703.7,239.8,701.5,237,701.5L237,701.5z"/>
		</g>
	</g>
	<g>
		<g>
			<path class="st7" d="M304,773.5c-1.9,0-3.5-1.6-3.5-3.5v-59c0-1.9,1.6-3.5,3.5-3.5h8c1.9,0,3.5,1.6,3.5,3.5v59
				c0,1.9-1.6,3.5-3.5,3.5H304z"/>
			<g>
				<path d="M312,710c0.5,0,1,0.5,1,1v59c0,0.5-0.5,1-1,1h-8c-0.5,0-1-0.5-1-1v-59c0-0.5,0.5-1,1-1H312 M312,705h-8
					c-3.3,0-6,2.7-6,6v59c0,3.3,2.7,6,6,6h8c3.3,0,6-2.7,6-6v-59C318,707.7,315.3,705,312,705L312,705z"/>
			</g>
		</g>
		<g>
			<path class="st7" d="M300,710c-1.7,0-3-1.3-3-3v-0.5c0-1.7,1.3-3,3-3h16c1.7,0,3,1.3,3,3v0.5c0,1.7-1.3,3-3,3H300z"/>
			<g>
				<path d="M316,705.5c0.5,0,1,0.5,1,1v0.5c0,0.5-0.5,1-1,1h-16c-0.5,0-1-0.5-1-1v-0.5c0-0.5,0.5-1,1-1H316 M316,701.5h-16
					c-2.8,0-5,2.2-5,5v0.5c0,2.8,2.2,5,5,5h16c2.8,0,5-2.2,5-5v-0.5C321,703.7,318.8,701.5,316,701.5L316,701.5z"/>
			</g>
		</g>
	</g>
	<g>
		<path class="st7" d="M302,573h-24v94h24c4.4,0,8-3.6,8-8v-78C310,576.6,306.4,573,302,573z"/>
	</g>
</g>
<path class="st9" d="M297,72.7l-3.9-4.6c-0.3-0.4-0.8-0.6-1.3-0.5l-5.9,1c-1.2,0.2-2-1.1-1.4-2.1l3.2-5.1c0.3-0.4,0.3-0.9,0-1.4
	l-2.8-5.3c-0.6-1.1,0.4-2.3,1.5-2l5.8,1.4c0.5,0.1,1,0,1.3-0.4l4.2-4.3c0.8-0.9,2.3-0.3,2.4,0.9l0.4,6c0,0.5,0.3,0.9,0.8,1.1
	l5.4,2.7c1.1,0.5,1,2.1-0.1,2.5l-5.6,2.3c-0.5,0.2-0.8,0.6-0.8,1.1l-0.9,5.9C299.3,73.1,297.8,73.6,297,72.7z"/>
<line class="st10" x1="383" y1="118" x2="391" y2="100"/>
<line class="st10" x1="394.8" y1="128.2" x2="410.7" y2="116.6"/>
<line class="st10" x1="400.8" y1="144.8" x2="420.4" y2="142.7"/>
<g>
	<g>
		<path class="st11" d="M61,648.3c-4.7,0-8.5-3.8-8.5-8.5V623c0-4.7,3.8-8.5,8.5-8.5h471.1c4.7,0,8.5,3.8,8.5,8.5v16.8
			c0,4.7-3.8,8.5-8.5,8.5H61z"/>
		<path d="M532.1,617c3.3,0,6,2.7,6,6v16.8c0,3.3-2.7,6-6,6H61c-3.3,0-6-2.7-6-6V623c0-3.3,2.7-6,6-6H532.1 M532.1,612H61
			c-6.1,0-11,4.9-11,11v16.8c0,6.1,4.9,11,11,11h471.1c6.1,0,11-4.9,11-11V623C543.1,616.9,538.2,612,532.1,612L532.1,612z"/>
	</g>
	<g>
		<path class="st12" d="M529.4,617H337v29h192.4c4.4,0,7.6-3.1,7.6-5.7v-19.1C537,618.5,533.8,617,529.4,617z"/>
	</g>
	<g>
		<g>
			<g>
				<path class="st11" d="M137,678.5c-3.6,0-6.5-2.9-6.5-6.5v-17c0-3.6,2.9-6.5,6.5-6.5h45c3.6,0,6.5,2.9,6.5,6.5v17
					c0,3.6-2.9,6.5-6.5,6.5H137z"/>
				<path d="M182,651c2.2,0,4,1.8,4,4v17c0,2.2-1.8,4-4,4h-45c-2.2,0-4-1.8-4-4v-17c0-2.2,1.8-4,4-4H182 M182,646h-45c-5,0-9,4-9,9
					v17c0,5,4,9,9,9h45c5,0,9-4,9-9v-17C191,650,187,646,182,646L182,646z"/>
			</g>
			<g>
				<path class="st12" d="M181.3,676H165v-25h16.3c2.3,0,4.2,1.9,4.2,4.2v16.6C185.5,674.1,183.6,676,181.3,676z"/>
			</g>
		</g>
		<g>
			<path class="st11" d="M151,771.6c-2.2,0-4-1.8-4-4V683c0-2.2,1.8-4,4-4h16c2.2,0,4,1.8,4,4v84.6c0,2.2-1.8,4-4,4H151z"/>
			<path d="M167,681c1.1,0,2,0.9,2,2v84.6c0,1.1-0.9,2-2,2h-16c-1.1,0-2-0.9-2-2V683c0-1.1,0.9-2,2-2H167 M167,677h-16
				c-3.3,0-6,2.7-6,6v84.6c0,3.3,2.7,6,6,6h16c3.3,0,6-2.7,6-6V683C173,679.7,170.3,677,167,677L167,677z"/>
		</g>
		<g>
			<path class="st12" d="M165,681h3.2c0.5,0.5,0.8,1.2,0.8,2v85c0,0.6-0.2,1.1-0.5,1.6H165V681z"/>
		</g>
	</g>
	<g>
		<g>
			<g>
				<path class="st12" d="M400,678.5c-3.6,0-6.5-2.9-6.5-6.5v-17c0-3.6,2.9-6.5,6.5-6.5h45c3.6,0,6.5,2.9,6.5,6.5v17
					c0,3.6-2.9,6.5-6.5,6.5H400z"/>
				<path d="M445,651c2.2,0,4,1.8,4,4v17c0,2.2-1.8,4-4,4h-45c-2.2,0-4-1.8-4-4v-17c0-2.2,1.8-4,4-4H445 M445,646h-45c-5,0-9,4-9,9
					v17c0,5,4,9,9,9h45c5,0,9-4,9-9v-17C454,650,450,646,445,646L445,646z"/>
			</g>
		</g>
		<g>
			<path class="st12" d="M414,772.1c-2.5,0-4.5-2-4.5-4.5V683c0-2.5,2-4.5,4.5-4.5h16c2.5,0,4.5,2,4.5,4.5v84.6c0,2.5-2,4.5-4.5,4.5
				H414z"/>
			<g>
				<path d="M430,681c1.1,0,2,0.9,2,2v84.6c0,1.1-0.9,2-2,2h-16c-1.1,0-2-0.9-2-2V683c0-1.1,0.9-2,2-2H430 M430,676h-16
					c-3.9,0-7,3.1-7,7v84.6c0,3.9,3.1,7,7,7h16c3.9,0,7-3.1,7-7V683C437,679.1,433.8,676,430,676L430,676z"/>
			</g>
		</g>
		<g>
			<path class="st12" d="M428,681h3.2c0.5,0.5,0.8,1.2,0.8,2v85c0,0.6-0.2,1.1-0.5,1.6H428V681z"/>
		</g>
	</g>
</g>
<g>
	<g>
		<path class="st13" d="M96.7,772.4c-3.6,0-6.5-2.9-6.5-6.5V717c0-3.6,2.9-6.5,6.5-6.5H172c3.6,0,6.5,2.9,6.5,6.5v48.9
			c0,3.6-2.9,6.5-6.5,6.5H96.7z"/>
		<path d="M172,713c2.2,0,4,1.8,4,4v48.9c0,2.2-1.8,4-4,4H96.7c-2.2,0-4-1.8-4-4V717c0-2.2,1.8-4,4-4H172 M172,708H96.7
			c-5,0-9,4-9,9v48.9c0,5,4,9,9,9H172c5,0,9-4,9-9V717C181,712,177,708,172,708L172,708z"/>
	</g>
	<path class="st14" d="M178,718.5c-6,19.5-18.9,27.5-43.5,27.5S98,737,91,719"/>
	<circle class="st15" cx="134.5" cy="746.5" r="6.5"/>
	<path class="st16" d="M110.3,709.7V701c0-3.9,3.2-7.1,7.1-7.1h34.9c3.9,0,7.1,3.2,7.1,7.1v8.7"/>
</g>
<g>
	<path class="st17" d="M356.7,611.5c-2.5,0-4.5-2-4.5-4.5v-6c0-2.5,2-4.5,4.5-4.5h138.5c2.5,0,4.5,2,4.5,4.5v6c0,2.5-2,4.5-4.5,4.5
		H356.7z"/>
	<path d="M495.2,599c1.1,0,2,0.9,2,2v6c0,1.1-0.9,2-2,2H356.7c-1.1,0-2-0.9-2-2v-6c0-1.1,0.9-2,2-2H495.2 M495.2,594H356.7
		c-3.9,0-7,3.1-7,7v6c0,3.9,3.1,7,7,7h138.5c3.9,0,7-3.1,7-7v-6C502.2,597.1,499,594,495.2,594L495.2,594z"/>
</g>
<g>
	<path class="st18" d="M111,614.5c-8,0-14.5-6.5-14.5-14.5v-21c0-6.4,5.2-11.5,11.5-11.5h16c6.3,0,11.5,5.2,11.5,11.5v21
		c0,8-6.5,14.5-14.5,14.5H111z"/>
	<path d="M124,570c4.9,0,9,4,9,9v21c0,6.6-5.4,12-12,12h-10c-6.6,0-12-5.4-12-12v-21c0-5,4.1-9,9-9H124 M124,565h-16
		c-7.7,0-14,6.3-14,14v21c0,9.4,7.6,17,17,17h10c9.4,0,17-7.6,17-17v-21C138,571.3,131.7,565,124,565L124,565z"/>
</g>
<path class="st19" d="M124.9,570h-3.6c-0.2,0-1.4,0.3-1.4,1v32.8c0,8.2,1,8,2.2,8c0.1,0,3.1,0,3.2,0c6.6-0.9,8.6-6,8.6-12.2v-21.5
	C134,573.1,130.5,570,124.9,570z"/>
<path class="st16" d="M137,577L137,577c5.2,0,9.5,4.3,9.5,9.5v7c0,5.2-4.3,9.5-9.5,9.5l0,0"/>
<g>
	<g>
		<path class="st17" d="M366.8,594.7c-8,0-14.5-6.5-14.5-14.5V513c0-8,6.5-14.5,14.5-14.5h116.8c8,0,14.5,6.5,14.5,14.5v67.2
			c0,8-6.5,14.5-14.5,14.5H366.8z"/>
		<path d="M483.6,501c6.6,0,12,5.4,12,12v67.2c0,6.6-5.4,12-12,12H366.8c-6.6,0-12-5.4-12-12V513c0-6.6,5.4-12,12-12H483.6
			 M483.6,496H366.8c-9.4,0-17,7.6-17,17v67.2c0,9.4,7.6,17,17,17h116.8c9.4,0,17-7.6,17-17V513C500.6,503.6,493,496,483.6,496
			L483.6,496z"/>
	</g>
	<circle class="st20" cx="424.4" cy="546.6" r="8"/>
	<path class="st21" d="M483.6,501H471v91h12.6c6.6,0,11.4-6.2,11.4-12.8V512C495,505.4,490.2,501,483.6,501z"/>
</g>
<path class="st21" d="M493.2,599H471v10h22.2c2.2,0,3.8-1.3,3.8-2.9v-4.6C497,600,495.4,599,493.2,599z"/>
</svg>
