<?xml version="1.0" standalone="no"?><!DOCTYPE svg PUBLIC "-//W3C//DTD SVG 1.1//EN" "http://www.w3.org/Graphics/SVG/1.1/DTD/svg11.dtd"><svg class="icon" width="200px" height="200.00px" viewBox="0 0 1024 1024" version="1.1" xmlns="http://www.w3.org/2000/svg"><path fill="#d81e06" d="M880.326 837.64H145.58c-45.089 0-81.638-36.549-81.638-81.638V266.171c0-45.089 36.55-81.638 81.638-81.638h734.746c45.089 0 81.638 36.55 81.638 81.638v489.831c0 45.089-36.55 81.638-81.638 81.638z m-40.82-81.638L605.518 551.261l-92.566 82.283-92.566-82.283-233.987 204.741h653.107zM145.58 715.183l229.608-204.096L145.58 306.991v408.192z m40.819-449.012l326.554 285.734 326.554-285.734H186.399z m693.927 40.82L650.717 511.087l229.608 204.096V306.991z" /></svg>